<?xml version="1.0" standalone="no"?><!DOCTYPE svg PUBLIC "-//W3C//DTD SVG 1.1//EN" "http://www.w3.org/Graphics/SVG/1.1/DTD/svg11.dtd"><svg t="1566644612670" class="icon" viewBox="0 0 1024 1024" version="1.1" xmlns="http://www.w3.org/2000/svg" p-id="2666" width="48" height="48" xmlns:xlink="http://www.w3.org/1999/xlink"><defs><style type="text/css"></style></defs><path d="M850.59048 303.310822a302.994316 302.994316 0 1 0-470.460093 252.222296A510.176916 510.176916 0 0 0 39.466507 972.76448a37.260112 37.260112 0 0 0 9.417391 30.299432A40.945178 40.945178 0 0 0 117.671797 983.000775a432.381078 432.381078 0 0 1 429.924367-375.876733 303.403768 303.403768 0 0 0 302.994316-303.81322z m-302.994316-224.379574A224.379575 224.379575 0 1 1 323.21659 303.310822a224.789026 224.789026 0 0 1 224.379574-224.379574z" p-id="2667" fill="#eb6f5a"></path><path d="M946.811648 667.722905a133.48128 133.48128 0 0 0-184.2533 0 134.300183 134.300183 0 0 0-184.662752 0 130.615117 130.615117 0 0 0 0 184.2533L735.534531 1013.709658a33.984498 33.984498 0 0 0 48.724761 0l161.733453-161.733453a130.615117 130.615117 0 0 0 0-184.2533z m-31.118335 92.12665a61.008315 61.008315 0 0 1-16.378071 43.401889L760.920541 942.055597l-137.166346-137.166346a59.77996 59.77996 0 0 1-18.015878-43.401889 61.417767 61.417767 0 0 1 104.410203-43.401888l26.204914 26.204914a35.212853 35.212853 0 0 0 48.724762 0l26.204914-26.204914a63.465026 63.465026 0 0 1 86.803777 0 61.827219 61.827219 0 0 1 17.606426 41.764081z" p-id="2668" fill="#eb6f5a"></path></svg>