<?xml version="1.0" standalone="no"?><!DOCTYPE svg PUBLIC "-//W3C//DTD SVG 1.1//EN" "http://www.w3.org/Graphics/SVG/1.1/DTD/svg11.dtd"><svg t="1569417775451" class="icon" viewBox="0 0 1024 1024" version="1.1" xmlns="http://www.w3.org/2000/svg" p-id="5698" xmlns:xlink="http://www.w3.org/1999/xlink" width="128" height="128"><defs><style type="text/css"></style></defs><path d="M593.066667 170.666667h-42.666667c0-25.6-17.066667-42.666667-42.666667-42.666667s-42.666667 17.066667-42.666666 42.666667h-42.666667c0-46.933333 38.4-85.333333 85.333333-85.333334s85.333333 38.4 85.333334 85.333334z m-85.333334 725.333333c38.4 0 72.533333-25.6 81.066667-64H426.666667c8.533333 38.4 42.666667 64 81.066666 64z m-128-85.333333v-21.333334h256v21.333334c0 72.533333-55.466667 128-128 128-68.266667 0-128-55.466667-128-128z m-157.866666-153.6v-217.6c0-157.866667 128-290.133333 290.133333-290.133334 157.866667 0 290.133333 128 290.133333 290.133334v217.6l64 174.933333H162.133333l59.733334-174.933333z" p-id="5699"></path></svg>