<?xml version="1.0" standalone="no"?><!DOCTYPE svg PUBLIC "-//W3C//DTD SVG 1.1//EN" "http://www.w3.org/Graphics/SVG/1.1/DTD/svg11.dtd"><svg class="icon" width="128px" height="128.00px" viewBox="0 0 1024 1024" version="1.1" xmlns="http://www.w3.org/2000/svg"><path fill="#c8db8c" d="M953.6 263.5776h-307.2V128a38.4 38.4 0 0 0-38.4-38.4H118.3744V41.5744a9.6256 9.6256 0 0 0-9.5744-9.5744H41.5744a9.6256 9.6256 0 0 0-9.5744 9.6256v940.8c0 5.2736 4.3008 9.5744 9.6256 9.5744h67.1744a9.6256 9.6256 0 0 0 9.6256-9.6256V665.6h297.5744v135.5776c0 21.248 17.152 38.4 38.4 38.4h499.2a38.4 38.4 0 0 0 38.4-38.4v-499.2a38.4 38.4 0 0 0-38.4-38.4zM118.3744 579.2256V175.9232h441.6512v403.2512H118.3744z m787.2512 173.9776H502.4256V665.6h134.3488a9.6256 9.6256 0 0 0 9.6256-9.6256V350.0544h259.2256v403.2z" /></svg>