<?xml version="1.0" standalone="no"?><!DOCTYPE svg PUBLIC "-//W3C//DTD SVG 1.1//EN" "http://www.w3.org/Graphics/SVG/1.1/DTD/svg11.dtd"><svg t="1577781668520" class="icon" viewBox="0 0 1024 1024" version="1.1" xmlns="http://www.w3.org/2000/svg" p-id="3121" xmlns:xlink="http://www.w3.org/1999/xlink" width="128" height="128"><defs><style type="text/css"></style></defs><path d="M319.213408 589.801117C188.496089 459.369832 366.122905 261.434637 512 358.972067c147.021229-98.109497 322.931844 100.683799 192.786592 230.82905L703.356425 591.231285 528.303911 759.418994c-8.867039 8.581006-23.454749 8.581006-32.607821 0L319.213408 589.801117 319.213408 589.801117zM512 0 512 0C370.413408 0 242.842458 57.206704 149.881564 149.881564L147.87933 152.169832C56.634637 244.844693 0 371.843575 0 512.286034c0 54.918436 8.581006 108.692737 25.17095 158.176536 15.159777 47.481564 37.470391 92.388827 65.501676 132.43352l0 181.631285c0 21.452514 17.734078 39.472626 39.758659 39.472626l0.572067 0L512 1024c141.300559 0 269.157542-57.492737 361.546369-149.595531l0.572067 0C966.793296 781.157542 1023.713966 653.300559 1023.713966 512.286034c0-141.300559-56.92067-269.443575-149.595531-361.546369L874.118436 149.881564C781.157542 57.206704 653.300559 0 512 0M205.372067 205.372067 205.372067 205.372067C284.031285 127.284916 392.437989 78.659218 512 78.659218s227.968715 48.625698 306.055866 126.712849c78.373184 78.659218 126.712849 187.065922 126.712849 306.627933 0 118.989944-48.339665 227.682682-126.712849 306.055866C739.968715 896.715084 631.562011 945.340782 512 945.340782L169.331844 945.340782 169.331844 790.596648c0-8.294972-2.574302-16.017877-7.722905-23.168715C135.579888 730.529609 113.841341 689.912849 100.111732 646.721788 85.810056 603.530726 78.659218 558.909497 78.659218 512.286034c0-118.703911 47.767598-226.538547 125.282682-304.911732L205.372067 205.372067zM352.67933 556.335196 352.67933 556.335196 512 709.649162l158.748603-153.027933 0.572067-0.286034c95.535196-95.535196-44.049162-232.545251-144.160894-149.881564-8.867039 6.864804-21.16648 7.436872-30.03352 0C397.586592 323.789944 257.144134 461.372067 352.67933 556.335196" p-id="3122" fill="#ffffff"></path></svg>