<?xml version="1.0" standalone="no"?><!DOCTYPE svg PUBLIC "-//W3C//DTD SVG 1.1//EN" "http://www.w3.org/Graphics/SVG/1.1/DTD/svg11.dtd"><svg t="1577781778140" class="icon" viewBox="0 0 1024 1024" version="1.1" xmlns="http://www.w3.org/2000/svg" p-id="5285" xmlns:xlink="http://www.w3.org/1999/xlink" width="128" height="128"><defs><style type="text/css"></style></defs><path d="M854.016 726.016q36.010667 0 61.013333 25.002667t25.002667 59.008l-342.016 128-299.989333-84.010667v-384h84.010666l310.016 114.005333q34.005333 13.994667 34.005334 48 0 20.010667-15.018667 34.986667t-36.992 15.018667h-120.021333l-73.984-27.989334-13.994667 40.021334 88.021333 32h299.989334zM681.984 137.984q45.994667-52.010667 116.010667-52.010667 57.984 0 98.986666 41.002667t41.002667 98.986667q0 43.989333-41.984 105.002666t-84.010667 102.016-130.005333 121.002667q-88.021333-80-130.005333-121.002667t-84.010667-102.016-41.984-105.002666q0-57.984 41.984-98.986667t100.010667-41.002667q68.010667 0 114.005333 52.010667z m-640 332.032h171.989333v468.010667H41.984V470.016z" p-id="5286" fill="#c8db8c"></path></svg>