<?xml version="1.0" standalone="no"?><!DOCTYPE svg PUBLIC "-//W3C//DTD SVG 1.1//EN" "http://www.w3.org/Graphics/SVG/1.1/DTD/svg11.dtd"><svg t="1577878657445" class="icon" viewBox="0 0 1024 1024" version="1.1" xmlns="http://www.w3.org/2000/svg" p-id="10644" xmlns:xlink="http://www.w3.org/1999/xlink" width="128" height="128"><defs><style type="text/css"></style></defs><path d="M192 948.032a23.424 23.424 0 0 1-11.392-2.944 24.704 24.704 0 0 1-12.608-21.504V100.416c0-13.504 10.752-24.448 24-24.448h674.688c13.248 0 24 10.944 24 24.448V923.52c0 8.96-4.8 17.216-12.48 21.44a23.488 23.488 0 0 1-24.576-0.96L526.08 728.256l-320.832 215.68a23.104 23.104 0 0 1-13.248 4.096z m333.952-273.408a23.68 23.68 0 0 1 13.056 3.968l303.744 200.064V124.928H216V878.08l296.704-199.36a23.424 23.424 0 0 1 13.248-4.096z" p-id="10645" fill="#afcd50"></path><path d="M410.112 612.864a24 24 0 0 1-23.68-28.032l20.672-120.448-87.488-85.248a24.064 24.064 0 0 1 13.312-40.896L453.76 320.64l54.08-109.504a23.936 23.936 0 1 1 43.008-0.064l54.08 109.568 120.896 17.536a24.064 24.064 0 0 1 13.312 40.896l-87.424 85.248 20.544 120.448a24.064 24.064 0 0 1-34.816 25.344l-108.096-56.832-108.032 56.832a24.32 24.32 0 0 1-11.2 2.752z m119.232-110.72c3.84 0 7.68 0.896 11.2 2.752l76.16 40.128-14.464-84.992a23.936 23.936 0 0 1 6.912-21.248l61.696-60.096-85.312-12.352a24.128 24.128 0 0 1-18.048-13.12l-38.144-77.248-38.08 77.248a23.872 23.872 0 0 1-18.112 13.12l-85.184 12.352 61.696 60.096c5.632 5.504 8.256 13.44 6.912 21.248l-14.592 84.992 76.224-40.128a23.488 23.488 0 0 1 11.136-2.752z" p-id="10646" fill="#afcd50"></path></svg>