<?xml version="1.0" standalone="no"?><!DOCTYPE svg PUBLIC "-//W3C//DTD SVG 1.1//EN" "http://www.w3.org/Graphics/SVG/1.1/DTD/svg11.dtd"><svg class="icon" width="128px" height="119.48px" viewBox="0 0 1097 1024" version="1.1" xmlns="http://www.w3.org/2000/svg"><path fill="#c8db8c" d="M217.746286 146.285714H146.285714a73.142857 73.142857 0 0 0-73.142857 73.142857v658.285715a73.142857 73.142857 0 0 0 73.142857 73.142857h804.571429a73.142857 73.142857 0 0 0 73.142857-73.142857V219.428571a73.142857 73.142857 0 0 0-73.142857-73.142857h-70.802286v73.142857H950.857143v658.285715H146.285714V219.428571h71.460572V146.285714z m0 0H146.285714a73.142857 73.142857 0 0 0-73.142857 73.142857v658.285715a73.142857 73.142857 0 0 0 73.142857 73.142857h804.571429a73.142857 73.142857 0 0 0 73.142857-73.142857V219.428571a73.142857 73.142857 0 0 0-73.142857-73.142857h-70.802286v73.142857H950.857143v658.285715H146.285714V219.428571h71.460572V146.285714z m292.937143 480.841143l229.814857-243.565714a36.571429 36.571429 0 1 1 53.248 50.176L538.624 704.146286a36.571429 36.571429 0 0 1-51.931429 1.316571l-159.451428-153.014857a36.571429 36.571429 0 0 1 50.688-52.736l132.754286 127.414857zM438.857143 146.285714h219.428571v73.142857H438.857143V146.285714zM329.142857 73.142857a36.571429 36.571429 0 0 1 36.571429 36.571429v146.285714a36.571429 36.571429 0 0 1-73.142857 0v-146.285714a36.571429 36.571429 0 0 1 36.571428-36.571429z m438.857143 0a36.571429 36.571429 0 0 1 36.571429 36.571429v146.285714a36.571429 36.571429 0 0 1-73.142858 0v-146.285714a36.571429 36.571429 0 0 1 36.571429-36.571429z"  /></svg>