<?xml version="1.0" standalone="no"?><!DOCTYPE svg PUBLIC "-//W3C//DTD SVG 1.1//EN" "http://www.w3.org/Graphics/SVG/1.1/DTD/svg11.dtd"><svg t="1569391260113" class="icon" viewBox="0 0 1024 1024" version="1.1" xmlns="http://www.w3.org/2000/svg" p-id="2952" xmlns:xlink="http://www.w3.org/1999/xlink" width="128" height="128"><defs><style type="text/css"></style></defs><path d="M512 981.333333a192 192 0 0 1-192-192 42.666667 42.666667 0 0 1 42.666667-42.666666h298.666666a42.666667 42.666667 0 0 1 42.666667 42.666666 192 192 0 0 1-192 192z m-97.706667-149.333333a106.666667 106.666667 0 0 0 195.413334 0z" fill="#1890ff" p-id="2953"></path><path d="M430.506667 237.866667a42.666667 42.666667 0 0 1-40.533334-29.226667A124.16 124.16 0 0 1 384 170.666667a128 128 0 0 1 256 0 123.733333 123.733333 0 0 1-5.973333 37.76 42.666667 42.666667 0 0 1-46.933334 28.8 173.653333 173.653333 0 0 0-21.333333-2.133334L554.666667 234.666667h-85.333334a231.68 231.68 0 0 0-29.226666 1.92h1.706666a37.76 37.76 0 0 1-11.306666 1.28zM475.093333 149.333333h73.813334a42.666667 42.666667 0 0 0-73.813334 0z" fill="#1890ff" p-id="2954"></path><path d="M853.333333 832H170.666667a42.666667 42.666667 0 0 1-32-14.506667 42.666667 42.666667 0 0 1-10.666667-33.493333L170.666667 445.866667A301.013333 301.013333 0 0 1 422.186667 153.386667l6.613333-1.28A310.4 310.4 0 0 1 469.333333 149.333333h101.546667c10.24 0 19.84 1.493333 29.653333 2.986667A298.666667 298.666667 0 0 1 853.333333 445.866667l42.666667 338.133333a42.666667 42.666667 0 0 1-10.24 33.493333A42.666667 42.666667 0 0 1 853.333333 832z m-634.24-85.333333h585.813334L768 453.973333a45.013333 45.013333 0 0 1 0-5.973333 213.333333 213.333333 0 0 0-181.12-211.413333 165.76 165.76 0 0 0-21.333333-2.133334L554.666667 234.666667h-85.333334a231.68 231.68 0 0 0-29.226666 1.92h1.706666l-5.333333 1.28A215.04 215.04 0 0 0 256 448a45.013333 45.013333 0 0 1 0 5.333333z m223.36-510.506667z" fill="#1890ff" p-id="2955"></path></svg>