<?xml version="1.0" standalone="no"?><!DOCTYPE svg PUBLIC "-//W3C//DTD SVG 1.1//EN" "http://www.w3.org/Graphics/SVG/1.1/DTD/svg11.dtd"><svg t="1569488692922" class="icon" viewBox="0 0 1024 1024" version="1.1" xmlns="http://www.w3.org/2000/svg" p-id="2450" xmlns:xlink="http://www.w3.org/1999/xlink" width="128" height="128"><defs><style type="text/css"></style></defs><path d="M519.54615371 962a34.37307685 34.37307685 0 0 1-34.02692314-34.71923057c0-19.17692315 15.23076943-34.71923057 34.02692315-34.71923057 206.44615372 0 374.4-171.34615372 374.39999999-381.94615459 0-135.96923057-71.75769258-262.73076943-187.26923056-330.92307685-16.26923057-9.55384628-21.80769258-30.80769258-12.42692315-47.42307685a33.68076943 33.68076943 0 0 1 46.52307685-12.66923057C877.19230742 200.11538427 962 350 962 510.61538428 962 759.5 763.51538427 962 519.54615371 962zM317.56538428 909.03846113a33.68076943 33.68076943 0 0 1-15.57692314-3.8076917C153.93846114 828.28076943 62 676.18076943 62 508.29615372 62 262.18076943 260.48461573 62 504.45384629 62c18.76153887 0 34.02692315 15.36923057 34.02692314 34.33846114s-15.23076943 34.33846114-34.02692315 34.33846201c-206.44615372 0-374.4 169.40769258-374.39999999 377.65384628 0 142.02692315 77.81538427 270.72692315 203.12307686 335.87307686 16.71923057 8.68846114 23.26153887 29.38846114 14.64230742 46.24615371a33.99230742 33.99230742 0 0 1-30.25384629 18.62307685z" p-id="2451" fill="#ffffff"></path><path d="M704.18461572 326.70384628a33.33461572 33.33461572 0 0 1-33.36923145-33.29999999V149.02307685c0-18.41538428 15.19615372-34.09615372 33.6461546-34.0961537h144.72692227c18.45 0 33.40384628 15.68076943 33.40384628 34.06153798 0 18.41538428-14.95384629 34.06153886-33.40384628 34.06153887h-111.66923057v110.35384628c0 18.38076943-14.88461572 33.3-33.33461485 33.3zM319.53846113 909.03846113H174.84615372a33.40384628 33.40384628 0 0 1-1e-8-66.84230741h111.66923056V730.76923057c0-18.48461572 14.88461572-33.47307685 33.33461573-33.47307686 18.45 0 33.36923057 14.98846113 33.36923057 33.47307686v145.10769258a33.36923057 33.36923057 0 0 1-33.64615372 33.1961537z" p-id="2452" fill="#ffffff"></path></svg>